<svg width="122" height="16" viewBox="0 0 122 16" fill="none" xmlns="http://www.w3.org/2000/svg">
<path d="M0.292892 7.29289C-0.0976295 7.68342 -0.0976295 8.31658 0.292892 8.70711L6.65685 15.0711C7.04738 15.4616 7.68054 15.4616 8.07107 15.0711C8.46159 14.6805 8.46159 14.0474 8.07107 13.6569L2.41422 8L8.07107 2.34315C8.46159 1.95262 8.46159 1.31946 8.07107 0.928932C7.68054 0.538408 7.04738 0.538408 6.65685 0.928932L0.292892 7.29289ZM51 7L1 7V9L51 9V7Z" fill="#1B1B1B"/>
<path d="M121.707 8.70711C122.098 8.31658 122.098 7.68342 121.707 7.29289L115.343 0.928932C114.953 0.538408 114.319 0.538408 113.929 0.928932C113.538 1.31946 113.538 1.95262 113.929 2.34315L119.586 8L113.929 13.6569C113.538 14.0474 113.538 14.6805 113.929 15.0711C114.319 15.4616 114.953 15.4616 115.343 15.0711L121.707 8.70711ZM71 9H121V7H71V9Z" fill="#1B1B1B"/>
</svg>
